inDegrees=no
num_controls=7
num_derivatives=13
num_iterations=118
num_multipliers=7
num_parameters=0
num_slacks=7
num_states=26
objective=0.497134
objective_accelerations=0.041926
objective_balance=0.003552
objective_effort=0.039577
objective_height=0.406246
objective_ligament=0.005833
solver_duration=1335.833006
status=Solve_Succeeded
success=true
DataType=double
version=3
OpenSimVersion=4.5
endheader
time	/jointset/ground_pelvis/pelvis_tilt/value	/jointset/ground_pelvis/pelvis_tx/value	/jointset/ground_pelvis/pelvis_ty/value	/jointset/hip_r/hip_flexion_r/value	/jointset/hip_r/hip_adduction_r/value	/jointset/hip_r/hip_rotation_r/value	/jointset/back/lumbar_extension/value	/jointset/patellofemoral_r/patellar_flexion_r/value	/jointset/knee_r/knee_flexion_r/value	/jointset/knee_r/knee_adduction_r/value	/jointset/knee_r/knee_rotation_r/value	/jointset/ankle_r/ankle_angle_r/value	/jointset/subtalar_r/subtalar_angle_r/value	/jointset/ground_pelvis/pelvis_tilt/speed	/jointset/ground_pelvis/pelvis_tx/speed	/jointset/ground_pelvis/pelvis_ty/speed	/jointset/hip_r/hip_flexion_r/speed	/jointset/hip_r/hip_adduction_r/speed	/jointset/hip_r/hip_rotation_r/speed	/jointset/back/lumbar_extension/speed	/jointset/patellofemoral_r/patellar_flexion_r/speed	/jointset/knee_r/knee_flexion_r/speed	/jointset/knee_r/knee_adduction_r/speed	/jointset/knee_r/knee_rotation_r/speed	/jointset/ankle_r/ankle_angle_r/speed	/jointset/subtalar_r/subtalar_angle_r/speed	/forceset/tau_hip_flexion_r	/forceset/tau_hip_adduction_r	/forceset/tau_hip_rotation_r	/forceset/tau_knee_flexion_r	/forceset/tau_ankle_angle_r	/forceset/tau_subtalar_angle_r	/forceset/tau_lumbar_extension	lambda_cid13_p0	lambda_cid14_p0	lambda_cid14_p1	lambda_cid14_p2	lambda_cid14_p3	lambda_cid14_p4	lambda_cid14_p5	/jointset/ground_pelvis/pelvis_tilt/accel	/jointset/ground_pelvis/pelvis_tx/accel	/jointset/ground_pelvis/pelvis_ty/accel	/jointset/hip_r/hip_flexion_r/accel	/jointset/hip_r/hip_adduction_r/accel	/jointset/hip_r/hip_rotation_r/accel	/jointset/back/lumbar_extension/accel	/jointset/patellofemoral_r/patellar_flexion_r/accel	/jointset/knee_r/knee_flexion_r/accel	/jointset/knee_r/knee_adduction_r/accel	/jointset/knee_r/knee_rotation_r/accel	/jointset/ankle_r/ankle_angle_r/accel	/jointset/subtalar_r/subtalar_angle_r/accel	gamma_cid13_p0	gamma_cid14_p0	gamma_cid14_p1	gamma_cid14_p2	gamma_cid14_p3	gamma_cid14_p4	gamma_cid14_p5
1.5	-0.146358459091782	0.04493907545530628	0.8514691188446282	0.77399953570838	-0.2401842852723731	-0.1117855647222101	-0.2859471229104154	0.7217727868933033	0.7217727868930651	0.06490966879697063	0.1745259059572967	0.2621667586222806	0.04236468091800838	0.3291053234889719	0.153847161521806	0.4080877926680595	-1.746062855205166	0.03791776707850895	-0.401351708154705	0.7000745971721368	-1.952847881403667	-1.952847881403512	0.1840912338037395	4.150418599011679e-05	-0.6240266509623361	-0.1144256839835122	-0.09006562270701032	-0.01818651003527979	0.01133949159964859	-0.3339813692931306	0.06430328737162684	-0.01245810238678237	0.1385117407569281	-30.08810023102824	-20.7208117067069	-5.130527980251329	-3.186063926164001	2.372520831292734	-655.3924776256783	56.91605268716516	0.1678895688320272	0.3523859167136627	-0.5449445780006539	-0.8435190578252254	0.1011526842450619	-0.3366017184615545	1.336993339931167	-1.130859790333664	-1.130859790333656	0.5296844126029039	-0.02561319858608169	-0.5494136842730024	0.04672275207588007	1.411892406920559e-07	8.866976115219113e-08	-1.410376904571457e-06	7.448120023285488e-07	9.719280831105794e-08	1.849451025311247e-07	-1.028408829439462e-06
1.51	-0.1430593131410505	0.04649496152873294	0.855521904078876	0.7564986790864059	-0.2398007679319312	-0.1158162986734728	-0.2788807263263972	0.7021903041802042	0.7021903041799243	0.06677808871853756	0.1745263861195718	0.2558996384094898	0.04122194383012162	0.3306765850753339	0.1573060299718256	0.4023837599494623	-1.753868064096575	0.03878206414201144	-0.4047690642495553	0.713099059585056	-1.963369475643117	-1.963369475642998	0.189589834329228	5.017188289185189e-05	-0.6293047157187418	-0.1141044463198251	-0.08386431153079352	-0.02032533556563661	0.01079021701035163	-0.330387326061072	0.06779391806379211	-0.01331104557864703	0.1328308902226771	-31.21941673064563	-19.43773432501927	-5.149836325440418	-3.327441564993956	1.943095330103991	-651.5829768046744	57.05695597470326	0.1446602371578968	0.3390551198563768	-0.5959155158053201	-0.7129504950265418	0.07850965783678467	-0.3401905041829448	1.269323685053327	-0.9709622864193349	-0.9709622864246202	0.5593212762469213	0.01358382788895322	-0.5030673369618986	0.02726629175440957	1.499136708680414e-07	9.253486053626006e-08	-1.50595269303866e-06	7.773990049392462e-07	1.0330104153881e-07	1.989660499275541e-07	-1.090794420719783e-06
1.52	-0.139745871417731	0.0480847198488019	0.8595150924065347	0.7389269846374724	-0.2394087193327689	-0.1198803837755202	-0.2716872549196335	0.6825109749155777	0.6825109749152546	0.06870136932610565	0.1745268483736263	0.2495825246560074	0.04008290752251954	0.3319644780064778	0.1606216108502654	0.3961684113502238	-1.760230420597099	0.0396240188228721	-0.4080219383118528	0.7254895617212144	-1.972217191709313	-1.972217191709229	0.1950633710037206	3.792254221958322e-05	-0.6340253591006496	-0.1136855279265663	-0.07766300035457623	-0.02246416109599239	0.01024094242104021	-0.3267932828290125	0.07128454875595773	-0.0141639887705099	0.1271500396884262	-32.33299021313519	-18.15895451930077	-5.167353597895003	-3.472010474765625	1.505171278624805	-647.8483376799587	57.25442929652051	0.1112158377884609	0.3237284023976913	-0.6472077541289094	-0.5549485796483462	0.09668420771670261	-0.3037053119510068	1.210201284578996	-0.796084155682749	-0.7960841556827624	0.5246716424037005	-0.0297966061008875	-0.4379294093734378	0.06625889799022742	1.580468629570554e-07	9.126307208626394e-08	-1.602804333955713e-06	7.932946521691026e-07	1.145649870269095e-07	1.988405964764459e-07	-1.146544581890235e-06
1.53	-0.1364210981660394	0.04970687343087119	0.8634436066908217	0.7212991160969752	-0.2390084002628631	-0.1239763545573435	-0.2643730324274888	0.6627517300549427	0.6627517300545659	0.07067919072480186	0.1745272701561	0.2432210595759597	0.03894852769359435	0.3329416717822807	0.1637803534251878	0.3894556404741057	-1.765094425732476	0.04043544826492631	-0.4111439920042434	0.737235204945917	-1.979340600837187	-1.979340600837204	0.200494177282618	4.245458942188113e-05	-0.6381695549846242	-0.1131733404760465	-0.07137053032917839	-0.02472173719896718	0.009659899412257032	-0.3233784849580099	0.07495755243262685	-0.01514021257989403	0.1214058154856086	-33.41613500651639	-16.83971645776231	-5.238295106732545	-3.600103252272999	1.073137102146082	-644.2992255303401	57.3994404126027	0.0837041001727892	0.3076624181418081	-0.6950973951619003	-0.4147876492639016	0.07268317339748834	-0.3120009742819996	1.138786077193312	-0.6268262682136532	-0.6268262682288516	0.5510587497933336	0.01511322943329066	-0.3879127708189386	0.04608084756635242	1.655518645786623e-07	8.453334031257371e-08	-1.701011568100731e-06	7.914557343068153e-07	1.313068767916282e-07	1.836845921248295e-07	-1.195244598568951e-06
1.54	-0.13308800638605	0.05135975748531023	0.8673026361381858	0.703630075271368	-0.2386001047263487	-0.1281026549913696	-0.2569449454559415	0.6429299797076551	0.642929979707222	0.07271107491212105	0.1745276442829044	0.2368211029184903	0.03781974617497102	0.3336281836659445	0.1667677053242119	0.3822714439656427	-1.768464877619111	0.0412193121448891	-0.4140878687525903	0.7482624576017134	-1.984718289040017	-1.984718289040136	0.2058759287279384	2.839140872420402e-05	-0.6417236745849778	-0.112565865866187	-0.06507806030378024	-0.02697931330194029	0.009078856403458414	-0.3199636870870064	0.07863055610929652	-0.01611643638927548	0.1156615912827908	-34.46297996290424	-15.52856272952148	-5.307740599403501	-3.731760590003326	0.6415871101580595	-640.883846183177	57.60855741533494	0.05307945936068074	0.2894502672180046	-0.7414928805978993	-0.2562379298997331	0.09117109529842282	-0.2680699231422839	1.066523170797741	-0.4469399706738867	-0.4469399706738998	0.5148606756882808	-0.03351565168088731	-0.3199141526492518	0.08531632985816016	1.734953723650994e-07	8.009727006686926e-08	-1.801520662577576e-06	7.96003960078678e-07	1.453363699378411e-07	1.767923703056446e-07	-1.246043305905055e-06
1.55	-0.1297495616477472	0.05304161377559446	0.8710875284389861	0.6859349241524221	-0.2381841571538001	-0.1322576490509893	-0.249410273348453	0.6230633198134709	0.6230633198129299	0.07479651897005581	0.1745279581472712	0.2303885991797587	0.03669747466496245	0.3340092088679383	0.1695700007804786	0.3746350667380201	-1.770303687513764	0.04196437843078747	-0.4168777880692963	0.7585382222580869	-1.988307264428079	-1.988307264428096	0.2112031236670108	3.036537624423332e-05	-0.6446727302948616	-0.1118721905081331	-0.05867125352243022	-0.02943446895913395	0.008459078765899821	-0.3167607658162432	0.08254641606567527	-0.01718798523470388	0.1098425001007976	-35.46778463512428	-14.15562140898625	-5.411509633274374	-3.853670641883021	0.1964843867917146	-637.6477093583903	57.80914862450564	0.02288834098194852	0.2706188516628029	-0.7854663858894311	-0.1084448318374689	0.06524079992471327	-0.2792443703882476	0.9880418674226246	-0.2689498451407306	-0.2689498451255048	0.5399401489504032	0.01659136648651454	-0.2667099684363781	0.06361774091630885	1.819441155153627e-07	7.830389679906131e-08	-1.90468190048022e-06	8.079112861246694e-07	1.562407104583845e-07	1.794214631433913e-07	-1.299260069868147e-06
1.56	-0.1264088517993514	0.05475049295380777	0.874793905719101	0.6682292364720119	-0.2377609456374562	-0.1364395005906659	-0.2417768558435275	0.6031699554609532	0.6031699554603041	0.07693489322657067	0.1745281992404145	0.2239297431462725	0.03558258482896185	0.3340812056844576	0.1721722829100284	0.3665684398285977	-1.770572189911991	0.04267210090425256	-0.4194593647641419	0.768011537089077	-1.990059180706877	-1.990059180706793	0.2164619684434304	1.383716448688816e-05	-0.6469941335358834	-0.1110895310645869	-0.05226444674107974	-0.03188962461632517	0.007839301128324653	-0.313557844545479	0.08646227602205481	-0.0182595340801286	0.1040234089188043	-36.42476418119747	-12.7918422648354	-5.513912312185312	-3.979192079178899	-0.2466015748597428	-634.5636062796628	58.07742741572687	-0.008726217734192944	0.2494476018745901	-0.8275428169578651	0.05782356938554097	0.08370233281177095	-0.2264013987701871	0.9060332057210981	-0.07952814882116754	-0.0795281488211699	0.5011906431576988	-0.03721608753636676	-0.1943836588768961	0.1031131469566245	1.903702829439452e-07	7.603728799490882e-08	-2.006846106769209e-06	8.176792040206744e-07	1.672067637874851e-07	1.810594515215052e-07	-1.349736791404521e-06
1.57	-0.123069006825566	0.05648433979512131	0.8784175378235928	0.6505288403165616	-0.2373308866639117	-0.1406462849956501	-0.2340528525739509	0.5832684003939338	0.5832684003935451	0.07912548263178802	0.1745283685790237	0.217450842572796	0.03447593213692374	0.3338360983603679	0.1745577325006021	0.3580940663428899	-1.769234081863409	0.0433321690914128	-0.4218593384229362	0.7766363855615944	-1.989930139596888	-1.989930139596834	0.2216421014432125	1.679460602836059e-05	-0.6486767856594129	-0.1102260946597283	-0.04576518190136021	-0.03446391874228009	0.007173940910796498	-0.3105278815102186	0.09056032944385545	-0.01947617150889182	0.09814711638468192	-37.32812777525979	-11.38998117553044	-5.679497310805844	-4.086829192094533	-0.6751085408883246	-631.6870787794159	58.27937002610689	-0.04014971772059594	0.2272276313862916	-0.86693548574026	0.2127562358506949	0.0559447511983367	-0.2408210959176668	0.8178009783724184	0.1073334852427378	0.1073334852380622	0.5240796448412781	0.01871344223413631	-0.1387838170985028	0.0799533235280156	1.987682307204267e-07	7.31791347703257e-08	-2.107764023541127e-06	8.247728617291963e-07	1.782499581272822e-07	1.814585593250781e-07	-1.396788459907496e-06
